<svg width="37" height="31" viewBox="0 0 37 31" fill="none" xmlns="http://www.w3.org/2000/svg">
<path d="M26.2096 29.375V26.2917C26.2096 24.6562 25.5599 23.0876 24.4035 21.9312C23.247 20.7747 21.6785 20.125 20.043 20.125H7.70964C6.07413 20.125 4.50562 20.7747 3.34914 21.9312C2.19267 23.0876 1.54297 24.6562 1.54297 26.2917V29.375M35.4596 29.375V26.2917C35.4586 24.9253 35.0038 23.598 34.1667 22.5182C33.3296 21.4383 32.1576 20.667 30.8346 20.3254M24.668 1.82542C25.9944 2.16505 27.1702 2.9365 28.0097 4.01815C28.8493 5.09979 29.3051 6.43011 29.3051 7.79937C29.3051 9.16864 28.8493 10.499 28.0097 11.5806C27.1702 12.6623 25.9944 13.4337 24.668 13.7733M20.043 7.79167C20.043 11.1974 17.2821 13.9583 13.8763 13.9583C10.4705 13.9583 7.70964 11.1974 7.70964 7.79167C7.70964 4.38591 10.4705 1.625 13.8763 1.625C17.2821 1.625 20.043 4.38591 20.043 7.79167Z" stroke="#1E1E1E" stroke-width="1.6" stroke-linecap="round" stroke-linejoin="round"/>
</svg>
