<svg width="14" height="16" viewBox="0 0 14 16" fill="none" xmlns="http://www.w3.org/2000/svg">
<path d="M1.18 4.63928L7 8.00595L12.82 4.63928M7 14.7193V7.99928M13 10.666V5.33262C12.9998 5.0988 12.938 4.86916 12.821 4.66673C12.704 4.46429 12.5358 4.29619 12.3333 4.17928L7.66667 1.51262C7.46397 1.39559 7.23405 1.33398 7 1.33398C6.76595 1.33398 6.53603 1.39559 6.33333 1.51262L1.66667 4.17928C1.46417 4.29619 1.29599 4.46429 1.17897 4.66673C1.06196 4.86916 1.00024 5.0988 1 5.33262V10.666C1.00024 10.8998 1.06196 11.1294 1.17897 11.3318C1.29599 11.5343 1.46417 11.7024 1.66667 11.8193L6.33333 14.4859C6.53603 14.603 6.76595 14.6646 7 14.6646C7.23405 14.6646 7.46397 14.603 7.66667 14.4859L12.3333 11.8193C12.5358 11.7024 12.704 11.5343 12.821 11.3318C12.938 11.1294 12.9998 10.8998 13 10.666Z" stroke="white" stroke-width="1.6" stroke-linecap="round" stroke-linejoin="round"/>
</svg>
