<svg width="26.67" height="33.33" viewBox="0 0 28 34" fill="none" xmlns="http://www.w3.org/2000/svg">
<path d="M0.667969 28.6663V25.333H4.0013V13.6663C4.0013 11.3608 4.69575 9.31912 6.08464 7.54134C7.47352 5.73578 9.27908 4.55523 11.5013 3.99967V2.83301C11.5013 2.13856 11.7374 1.55523 12.2096 1.08301C12.7096 0.583007 13.3069 0.333008 14.0013 0.333008C14.6957 0.333008 15.2791 0.583007 15.7513 1.08301C16.2513 1.55523 16.5013 2.13856 16.5013 2.83301V3.99967C18.7235 4.55523 20.5291 5.73578 21.918 7.54134C23.3069 9.31912 24.0013 11.3608 24.0013 13.6663V25.333H27.3346V28.6663H0.667969ZM14.0013 33.6663C13.0846 33.6663 12.293 33.3469 11.6263 32.708C10.9874 32.0413 10.668 31.2497 10.668 30.333H17.3346C17.3346 31.2497 17.0013 32.0413 16.3346 32.708C15.6957 33.3469 14.918 33.6663 14.0013 33.6663ZM7.33464 25.333H20.668V13.6663C20.668 11.833 20.0152 10.2636 18.7096 8.95801C17.4041 7.65245 15.8346 6.99967 14.0013 6.99967C12.168 6.99967 10.5985 7.65245 9.29297 8.95801C7.98741 10.2636 7.33464 11.833 7.33464 13.6663V25.333Z" fill="#FEF7FF"/>
</svg>
