<svg width="37" height="27" viewBox="0 0 37 27" fill="none" xmlns="http://www.w3.org/2000/svg">
<path d="M27.7488 10.417H25.8063C25.2295 8.18311 24.0377 6.15581 22.3663 4.56543C20.6949 2.97506 18.6109 1.8854 16.3511 1.42025C14.0914 0.955107 11.7464 1.13314 9.58279 1.93411C7.41916 2.73509 5.52356 4.12689 4.11142 5.95137C2.69927 7.77585 1.82719 9.95985 1.59427 12.2552C1.36135 14.5506 1.77693 16.8652 2.79379 18.9362C3.81065 21.0071 5.38802 22.7514 7.34665 23.9706C9.30528 25.1899 11.5666 25.8354 13.8738 25.8337H27.7488C29.7932 25.8337 31.7538 25.0215 33.1994 23.5759C34.645 22.1303 35.4571 20.1697 35.4571 18.1253C35.4571 16.0809 34.645 14.1203 33.1994 12.6747C31.7538 11.2291 29.7932 10.417 27.7488 10.417Z" stroke="#1E1E1E" stroke-width="1.6" stroke-linecap="round" stroke-linejoin="round"/>
</svg>
