<svg width="37" height="31" viewBox="0 0 37 31" fill="none" xmlns="http://www.w3.org/2000/svg">
<path d="M24.668 29.375V26.2917C24.668 24.6562 24.0183 23.0876 22.8618 21.9312C21.7053 20.7747 20.1368 20.125 18.5013 20.125H7.70964C6.07413 20.125 4.50562 20.7747 3.34914 21.9312C2.19267 23.0876 1.54297 24.6562 1.54297 26.2917V29.375M27.7513 9.33333L35.4596 17.0417M35.4596 9.33333L27.7513 17.0417M19.2721 7.79167C19.2721 11.1974 16.5112 13.9583 13.1055 13.9583C9.69971 13.9583 6.9388 11.1974 6.9388 7.79167C6.9388 4.38591 9.69971 1.625 13.1055 1.625C16.5112 1.625 19.2721 4.38591 19.2721 7.79167Z" stroke="#1E1E1E" stroke-width="1.6" stroke-linecap="round" stroke-linejoin="round"/>
</svg>
