<svg width="37" height="31" viewBox="0 0 37 31" fill="none" xmlns="http://www.w3.org/2000/svg">
<path d="M24.6641 29.375V26.2917C24.6641 24.6562 24.0144 23.0876 22.8579 21.9312C21.7014 20.7747 20.1329 20.125 18.4974 20.125H7.70573C6.07023 20.125 4.50171 20.7747 3.34524 21.9312C2.18876 23.0876 1.53906 24.6562 1.53906 26.2917V29.375M27.7474 9.33333L35.4557 17.0417M35.4557 9.33333L27.7474 17.0417M19.2682 7.79167C19.2682 11.1974 16.5073 13.9583 13.1016 13.9583C9.69581 13.9583 6.9349 11.1974 6.9349 7.79167C6.9349 4.38591 9.69581 1.625 13.1016 1.625C16.5073 1.625 19.2682 4.38591 19.2682 7.79167Z" stroke="#1E1E1E" stroke-width="1.6" stroke-linecap="round" stroke-linejoin="round"/>
</svg>
