<svg width="33" height="33" viewBox="0 0 33 33" fill="none" xmlns="http://www.w3.org/2000/svg">
<path d="M14.957 4.16685H4.16536C3.34761 4.16685 2.56336 4.4917 1.98512 5.06994C1.40688 5.64818 1.08203 6.43244 1.08203 7.25019V28.8335C1.08203 29.6513 1.40688 30.4355 1.98512 31.0138C2.56336 31.592 3.34761 31.9169 4.16536 31.9169H25.7487C26.5664 31.9169 27.3507 31.592 27.9289 31.0138C28.5072 30.4355 28.832 29.6513 28.832 28.8335V18.0419M26.5195 1.85435C27.1328 1.24104 27.9647 0.896484 28.832 0.896484C29.6994 0.896484 30.5312 1.24104 31.1445 1.85435C31.7578 2.46767 32.1024 3.2995 32.1024 4.16685C32.1024 5.03421 31.7578 5.86604 31.1445 6.47935L16.4987 21.1252L10.332 22.6669L11.8737 16.5002L26.5195 1.85435Z" stroke="#1E1E1E" stroke-width="1.6" stroke-linecap="round" stroke-linejoin="round"/>
</svg>
