<svg width="32" height="34" viewBox="0 0 32 34" fill="none" xmlns="http://www.w3.org/2000/svg">
<path d="M31.0534 16.0356L16.8855 30.2035C15.1498 31.9392 12.7957 32.9143 10.3411 32.9143C7.88646 32.9143 5.53238 31.9392 3.79671 30.2035C2.06103 28.4678 1.08594 26.1137 1.08594 23.6591C1.08594 21.2045 2.06103 18.8504 3.79671 17.1147L17.9646 2.94683C19.1217 1.78971 20.6911 1.13965 22.3275 1.13965C23.964 1.13965 25.5333 1.78971 26.6905 2.94683C27.8476 4.10394 28.4976 5.67333 28.4976 7.30974C28.4976 8.94615 27.8476 10.5155 26.6905 11.6727L12.5071 25.8406C11.9286 26.4191 11.1439 26.7442 10.3257 26.7442C9.50746 26.7442 8.72277 26.4191 8.14421 25.8406C7.56565 25.262 7.24062 24.4773 7.24062 23.6591C7.24062 22.8409 7.56565 22.0562 8.14421 21.4777L21.233 8.40433" stroke="#1E1E1E" stroke-width="1.6" stroke-linecap="round" stroke-linejoin="round"/>
</svg>
