<svg width="14" height="16" viewBox="0 0 14 16" fill="none" xmlns="http://www.w3.org/2000/svg">
<path d="M8.33463 1.33398H3.0013C2.64768 1.33398 2.30854 1.47446 2.05849 1.72451C1.80844 1.97456 1.66797 2.3137 1.66797 2.66732V13.334C1.66797 13.6876 1.80844 14.0267 2.05849 14.2768C2.30854 14.5268 2.64768 14.6673 3.0013 14.6673H11.0013C11.3549 14.6673 11.6941 14.5268 11.9441 14.2768C12.1942 14.0267 12.3346 13.6876 12.3346 13.334V5.33398M8.33463 1.33398L12.3346 5.33398M8.33463 1.33398L8.33464 5.33398H12.3346M9.66797 8.66732H4.33464M9.66797 11.334H4.33464M5.66797 6.00065H4.33464" stroke="white" stroke-width="1.6" stroke-linecap="round" stroke-linejoin="round"/>
</svg>
