<svg width="33" height="33" viewBox="0 0 33 33" fill="none" xmlns="http://www.w3.org/2000/svg">
<path d="M7.2487 11.8757V1.08398H25.7487V11.8757M7.2487 25.7507H4.16536C3.34761 25.7507 2.56336 25.4258 1.98512 24.8476C1.40688 24.2693 1.08203 23.4851 1.08203 22.6673V14.959C1.08203 14.1412 1.40688 13.357 1.98512 12.7787C2.56336 12.2005 3.34761 11.8757 4.16536 11.8757H28.832C29.6498 11.8757 30.434 12.2005 31.0123 12.7787C31.5905 13.357 31.9154 14.1412 31.9154 14.959V22.6673C31.9154 23.4851 31.5905 24.2693 31.0123 24.8476C30.434 25.4258 29.6498 25.7507 28.832 25.7507H25.7487M7.2487 19.584H25.7487V31.9173H7.2487V19.584Z" stroke="#1E1E1E" stroke-width="1.6" stroke-linecap="round" stroke-linejoin="round"/>
</svg>
