<svg width="53.33" height="53.33" viewBox="0 0 54 54" fill="none" xmlns="http://www.w3.org/2000/svg">
<path d="M10.5987 40.5997C12.8654 38.8663 15.3987 37.4997 18.1987 36.4997C20.9987 35.4997 23.932 34.9997 26.9987 34.9997C30.0654 34.9997 32.9987 35.4997 35.7987 36.4997C38.5987 37.4997 41.132 38.8663 43.3987 40.5997C44.9543 38.7775 46.1654 36.7108 47.032 34.3997C47.8987 32.0886 48.332 29.6219 48.332 26.9997C48.332 21.0886 46.2543 16.0552 42.0987 11.8997C37.9431 7.74412 32.9098 5.66634 26.9987 5.66634C21.0876 5.66634 16.0543 7.74412 11.8987 11.8997C7.74314 16.0552 5.66536 21.0886 5.66536 26.9997C5.66536 29.6219 6.0987 32.0886 6.96536 34.3997C7.83203 36.7108 9.04314 38.7775 10.5987 40.5997ZM26.9987 29.6663C24.3765 29.6663 22.1654 28.7663 20.3654 26.9663C18.5654 25.1663 17.6654 22.9552 17.6654 20.333C17.6654 17.7108 18.5654 15.4997 20.3654 13.6997C22.1654 11.8997 24.3765 10.9997 26.9987 10.9997C29.6209 10.9997 31.832 11.8997 33.632 13.6997C35.432 15.4997 36.332 17.7108 36.332 20.333C36.332 22.9552 35.432 25.1663 33.632 26.9663C31.832 28.7663 29.6209 29.6663 26.9987 29.6663ZM26.9987 53.6663C23.3098 53.6663 19.8431 52.9663 16.5987 51.5663C13.3543 50.1663 10.532 48.2663 8.13203 45.8663C5.73203 43.4663 3.83203 40.6441 2.43203 37.3997C1.03203 34.1552 0.332031 30.6886 0.332031 26.9997C0.332031 23.3108 1.03203 19.8441 2.43203 16.5997C3.83203 13.3552 5.73203 10.533 8.13203 8.13301C10.532 5.73301 13.3543 3.83301 16.5987 2.43301C19.8431 1.03301 23.3098 0.333008 26.9987 0.333008C30.6876 0.333008 34.1543 1.03301 37.3987 2.43301C40.6431 3.83301 43.4654 5.73301 45.8654 8.13301C48.2654 10.533 50.1654 13.3552 51.5654 16.5997C52.9654 19.8441 53.6654 23.3108 53.6654 26.9997C53.6654 30.6886 52.9654 34.1552 51.5654 37.3997C50.1654 40.6441 48.2654 43.4663 45.8654 45.8663C43.4654 48.2663 40.6431 50.1663 37.3987 51.5663C34.1543 52.9663 30.6876 53.6663 26.9987 53.6663ZM26.9987 48.333C29.3543 48.333 31.5765 47.9886 33.6654 47.2997C35.7542 46.6108 37.6654 45.6219 39.3987 44.333C37.6654 43.0441 35.7542 42.0552 33.6654 41.3663C31.5765 40.6774 29.3543 40.333 26.9987 40.333C24.6431 40.333 22.4209 40.6774 20.332 41.3663C18.2431 42.0552 16.332 43.0441 14.5987 44.333C16.332 45.6219 18.2431 46.6108 20.332 47.2997C22.4209 47.9886 24.6431 48.333 26.9987 48.333ZM26.9987 24.333C28.1543 24.333 29.1098 23.9552 29.8654 23.1997C30.6209 22.4441 30.9987 21.4886 30.9987 20.333C30.9987 19.1775 30.6209 18.2219 29.8654 17.4663C29.1098 16.7108 28.1543 16.333 26.9987 16.333C25.8431 16.333 24.8876 16.7108 24.132 17.4663C23.3765 18.2219 22.9987 19.1775 22.9987 20.333C22.9987 21.4886 23.3765 22.4441 24.132 23.1997C24.8876 23.9552 25.8431 24.333 26.9987 24.333Z" fill="#FEF7FF"/>
</svg>
