<svg width="37" height="31" viewBox="0 0 37 31" fill="none" xmlns="http://www.w3.org/2000/svg">
<path d="M35.4596 3.16693V12.4169M35.4596 12.4169H26.2096M35.4596 12.4169L28.3063 5.69526C26.6494 4.03753 24.5996 2.82654 22.3481 2.17529C20.0965 1.52403 17.7168 1.45375 15.4307 1.97099C13.1447 2.48823 11.027 3.57614 9.27515 5.1332C7.5233 6.69026 6.19444 8.66572 5.41255 10.8753M1.54297 27.8336V18.5836M1.54297 18.5836H10.793M1.54297 18.5836L8.6963 25.3053C10.3532 26.963 12.403 28.174 14.6545 28.8252C16.9061 29.4765 19.2858 29.5468 21.5719 29.0295C23.8579 28.5123 25.9756 27.4244 27.7275 25.8673C29.4793 24.3103 30.8082 22.3348 31.59 20.1253" stroke="#1E1E1E" stroke-width="1.6" stroke-linecap="round" stroke-linejoin="round"/>
</svg>
